<svg width="160" height="22" viewBox="0 0 160 22" fill="none" xmlns="http://www.w3.org/2000/svg">
<path d="M4.12198 8.37838V21.1674H0V0.688293H3.65196L12.8125 13.5953V0.688293H16.9348V21.1674H13.2038L4.12198 8.37838Z" fill="black"/>
<path d="M36.2703 0.688293H32.718L24.9596 21.1675H29.3232L34.4878 6.97115L39.6969 21.1675H44.0603L36.2703 0.688293Z" fill="black"/>
<path d="M34.5239 21.1675L31.2642 16.1212H37.7556L34.5239 21.1675Z" fill="#A79D80"/>
<path d="M54.3164 4.60037H48.7501V0.688293H64.0833V4.60037H58.4384V21.1675H54.3164V4.60037Z" fill="black"/>
<path d="M77.3255 20.674C76.362 20.267 75.4956 19.6813 74.7525 18.9385C74.0097 18.1953 73.4266 17.3288 73.0171 16.3653C72.5945 15.365 72.379 14.3043 72.379 13.212V0.688293H76.5012V13.212C76.5012 15.4044 78.2866 17.1898 80.479 17.1898C82.6714 17.1898 84.4564 15.4044 84.4564 13.212V0.688293H88.5787V13.212C88.5787 14.3043 88.3633 15.365 87.9406 16.3653C87.5336 17.3288 86.9482 18.1953 86.2051 18.9385C85.4619 19.6813 84.5956 20.2642 83.6321 20.674C82.6318 21.0967 81.5711 21.3117 80.479 21.3117C79.3865 21.3117 78.3261 21.0967 77.3255 20.674Z" fill="black"/>
<path d="M114.366 21.1675H109.385L104.51 14.1389V10.1403H105.297C106.539 10.1403 107.468 9.86715 108.057 9.32626C108.561 8.86158 108.815 8.19197 108.815 7.33079C108.815 6.43293 108.553 5.75033 108.036 5.30398C107.505 4.84446 106.665 4.60037 105.612 4.60037H102.514V21.1675H98.3921V0.688293H105.927C107.08 0.688293 108.12 0.853692 109.023 1.17915C109.913 1.50211 110.674 1.98532 111.286 2.61273C112.418 3.77586 113.016 5.42469 113.016 7.38331C113.016 9.13986 112.53 10.5918 111.572 11.6997C110.905 12.469 110.026 13.0571 108.947 13.4536L114.366 21.1675Z" fill="black"/>
<path d="M126.26 12.1854L119.211 0.688293H123.997L128.332 7.87702L132.646 0.688293H137.493L130.383 12.1854V21.1675H126.26V12.1854Z" fill="black"/>
<path d="M152.21 0.688293H148.658L140.899 21.1675H145.263L150.427 6.97115L155.637 21.1675H160L152.21 0.688293Z" fill="black"/>
<path d="M150.464 21.1675L147.204 16.1212H153.695L150.464 21.1675Z" fill="#A79D80"/>
</svg>
